<mxfile host="Electron" modified="2023-09-30T17:36:11.636Z" agent="Mozilla/5.0 (Windows NT 10.0; Win64; x64) AppleWebKit/537.36 (KHTML, like Gecko) draw.io/22.0.0 Chrome/114.0.5735.289 Electron/25.8.3 Safari/537.36" etag="Nyaos3o0VAK2Je2Kjyss" version="22.0.0" type="device">
  <diagram name="PÃ gina-1" id="SXymaxQ0fnPP3MxZsTyu">
    <mxGraphModel dx="439" dy="331" grid="1" gridSize="10" guides="1" tooltips="1" connect="1" arrows="1" fold="1" page="1" pageScale="1" pageWidth="827" pageHeight="1169" math="0" shadow="0">
      <root>
        <mxCell id="0" />
        <mxCell id="1" parent="0" />
        <mxCell id="emVnELW7l06RB4Jt8qlT-1" value="&lt;b&gt;A&lt;/b&gt;" style="ellipse;whiteSpace=wrap;html=1;aspect=fixed;" vertex="1" parent="1">
          <mxGeometry x="340" y="300" width="20" height="20" as="geometry" />
        </mxCell>
        <mxCell id="emVnELW7l06RB4Jt8qlT-3" value="&lt;b&gt;B&lt;/b&gt;" style="ellipse;whiteSpace=wrap;html=1;aspect=fixed;align=center;" vertex="1" parent="1">
          <mxGeometry x="470" y="260" width="20" height="20" as="geometry" />
        </mxCell>
        <mxCell id="emVnELW7l06RB4Jt8qlT-4" value="&lt;b&gt;D&lt;/b&gt;" style="ellipse;whiteSpace=wrap;html=1;aspect=fixed;" vertex="1" parent="1">
          <mxGeometry x="530" y="390" width="20" height="20" as="geometry" />
        </mxCell>
        <mxCell id="emVnELW7l06RB4Jt8qlT-5" value="&lt;b&gt;E&lt;/b&gt;" style="ellipse;whiteSpace=wrap;html=1;aspect=fixed;" vertex="1" parent="1">
          <mxGeometry x="404" y="370" width="20" height="20" as="geometry" />
        </mxCell>
        <mxCell id="emVnELW7l06RB4Jt8qlT-6" value="&lt;b&gt;C&lt;/b&gt;" style="ellipse;whiteSpace=wrap;html=1;aspect=fixed;" vertex="1" parent="1">
          <mxGeometry x="620" y="300" width="20" height="20" as="geometry" />
        </mxCell>
        <mxCell id="emVnELW7l06RB4Jt8qlT-7" value="" style="endArrow=none;html=1;rounded=0;entryX=0;entryY=1;entryDx=0;entryDy=0;exitX=1;exitY=0;exitDx=0;exitDy=0;" edge="1" parent="1" source="emVnELW7l06RB4Jt8qlT-4" target="emVnELW7l06RB4Jt8qlT-6">
          <mxGeometry width="50" height="50" relative="1" as="geometry">
            <mxPoint x="590" y="400" as="sourcePoint" />
            <mxPoint x="640" y="350" as="targetPoint" />
          </mxGeometry>
        </mxCell>
        <mxCell id="emVnELW7l06RB4Jt8qlT-8" value="4" style="edgeLabel;html=1;align=center;verticalAlign=middle;resizable=0;points=[];" vertex="1" connectable="0" parent="emVnELW7l06RB4Jt8qlT-7">
          <mxGeometry x="0.2307" relative="1" as="geometry">
            <mxPoint x="-4" y="4" as="offset" />
          </mxGeometry>
        </mxCell>
        <mxCell id="emVnELW7l06RB4Jt8qlT-9" value="" style="endArrow=none;html=1;rounded=0;entryX=0;entryY=0.5;entryDx=0;entryDy=0;exitX=1;exitY=0.5;exitDx=0;exitDy=0;" edge="1" parent="1" source="emVnELW7l06RB4Jt8qlT-1" target="emVnELW7l06RB4Jt8qlT-6">
          <mxGeometry width="50" height="50" relative="1" as="geometry">
            <mxPoint x="430" y="330" as="sourcePoint" />
            <mxPoint x="556" y="320" as="targetPoint" />
          </mxGeometry>
        </mxCell>
        <mxCell id="emVnELW7l06RB4Jt8qlT-11" value="15" style="edgeLabel;html=1;align=center;verticalAlign=middle;resizable=0;points=[];" vertex="1" connectable="0" parent="emVnELW7l06RB4Jt8qlT-9">
          <mxGeometry x="0.0108" y="1" relative="1" as="geometry">
            <mxPoint x="-22" y="1" as="offset" />
          </mxGeometry>
        </mxCell>
        <mxCell id="emVnELW7l06RB4Jt8qlT-13" value="" style="endArrow=none;html=1;rounded=0;entryX=0;entryY=0;entryDx=0;entryDy=0;exitX=1;exitY=0.5;exitDx=0;exitDy=0;" edge="1" parent="1" source="emVnELW7l06RB4Jt8qlT-3" target="emVnELW7l06RB4Jt8qlT-6">
          <mxGeometry width="50" height="50" relative="1" as="geometry">
            <mxPoint x="567" y="413" as="sourcePoint" />
            <mxPoint x="643" y="337" as="targetPoint" />
          </mxGeometry>
        </mxCell>
        <mxCell id="emVnELW7l06RB4Jt8qlT-15" value="5" style="edgeLabel;html=1;align=center;verticalAlign=middle;resizable=0;points=[];" vertex="1" connectable="0" parent="emVnELW7l06RB4Jt8qlT-13">
          <mxGeometry x="0.2092" y="-1" relative="1" as="geometry">
            <mxPoint x="-9" y="-4" as="offset" />
          </mxGeometry>
        </mxCell>
        <mxCell id="emVnELW7l06RB4Jt8qlT-16" value="" style="endArrow=none;html=1;rounded=0;entryX=0.71;entryY=0.97;entryDx=0;entryDy=0;exitX=0.29;exitY=0.07;exitDx=0;exitDy=0;exitPerimeter=0;entryPerimeter=0;" edge="1" parent="1" source="emVnELW7l06RB4Jt8qlT-4" target="emVnELW7l06RB4Jt8qlT-3">
          <mxGeometry width="50" height="50" relative="1" as="geometry">
            <mxPoint x="577" y="423" as="sourcePoint" />
            <mxPoint x="653" y="347" as="targetPoint" />
          </mxGeometry>
        </mxCell>
        <mxCell id="emVnELW7l06RB4Jt8qlT-18" value="6" style="edgeLabel;html=1;align=center;verticalAlign=middle;resizable=0;points=[];" vertex="1" connectable="0" parent="emVnELW7l06RB4Jt8qlT-16">
          <mxGeometry x="-0.1529" relative="1" as="geometry">
            <mxPoint as="offset" />
          </mxGeometry>
        </mxCell>
        <mxCell id="emVnELW7l06RB4Jt8qlT-20" value="" style="endArrow=none;html=1;rounded=0;entryX=1;entryY=1;entryDx=0;entryDy=0;exitX=0;exitY=0;exitDx=0;exitDy=0;" edge="1" parent="1" source="emVnELW7l06RB4Jt8qlT-5" target="emVnELW7l06RB4Jt8qlT-1">
          <mxGeometry width="50" height="50" relative="1" as="geometry">
            <mxPoint x="440" y="420" as="sourcePoint" />
            <mxPoint x="490" y="370" as="targetPoint" />
          </mxGeometry>
        </mxCell>
        <mxCell id="emVnELW7l06RB4Jt8qlT-22" value="3" style="edgeLabel;html=1;align=center;verticalAlign=middle;resizable=0;points=[];" vertex="1" connectable="0" parent="emVnELW7l06RB4Jt8qlT-20">
          <mxGeometry x="-0.0648" relative="1" as="geometry">
            <mxPoint as="offset" />
          </mxGeometry>
        </mxCell>
        <mxCell id="emVnELW7l06RB4Jt8qlT-26" value="" style="endArrow=none;html=1;rounded=0;entryX=0;entryY=0.5;entryDx=0;entryDy=0;exitX=0.95;exitY=0.67;exitDx=0;exitDy=0;exitPerimeter=0;" edge="1" parent="1" source="emVnELW7l06RB4Jt8qlT-5" target="emVnELW7l06RB4Jt8qlT-4">
          <mxGeometry width="50" height="50" relative="1" as="geometry">
            <mxPoint x="440" y="420" as="sourcePoint" />
            <mxPoint x="490" y="370" as="targetPoint" />
          </mxGeometry>
        </mxCell>
        <mxCell id="emVnELW7l06RB4Jt8qlT-27" value="5" style="edgeLabel;html=1;align=center;verticalAlign=middle;resizable=0;points=[];" vertex="1" connectable="0" parent="emVnELW7l06RB4Jt8qlT-26">
          <mxGeometry x="0.0931" relative="1" as="geometry">
            <mxPoint as="offset" />
          </mxGeometry>
        </mxCell>
        <mxCell id="emVnELW7l06RB4Jt8qlT-28" value="" style="endArrow=none;html=1;rounded=0;entryX=0;entryY=0.5;entryDx=0;entryDy=0;exitX=1;exitY=0;exitDx=0;exitDy=0;" edge="1" parent="1" source="emVnELW7l06RB4Jt8qlT-1" target="emVnELW7l06RB4Jt8qlT-3">
          <mxGeometry width="50" height="50" relative="1" as="geometry">
            <mxPoint x="440" y="420" as="sourcePoint" />
            <mxPoint x="490" y="370" as="targetPoint" />
          </mxGeometry>
        </mxCell>
        <mxCell id="emVnELW7l06RB4Jt8qlT-29" value="6" style="edgeLabel;html=1;align=center;verticalAlign=middle;resizable=0;points=[];" vertex="1" connectable="0" parent="emVnELW7l06RB4Jt8qlT-28">
          <mxGeometry x="0.0056" relative="1" as="geometry">
            <mxPoint as="offset" />
          </mxGeometry>
        </mxCell>
      </root>
    </mxGraphModel>
  </diagram>
</mxfile>
